{
    "asset" : {
        "generator" : "Khronos glTF Blender I/O v1.8.19",
        "version" : "2.0"
    },
    "scene" : 0,
    "scenes" : [
        {
            "name" : "Scene",
            "nodes" : [
                0,
                1,
                2,
                3,
                4,
                5,
                6
            ]
        }
    ],
    "nodes" : [
        {
            "mesh" : 0,
            "name" : "Body",
            "translation" : [
                -0.04755201190710068,
                0.5473474860191345,
                0.009770216420292854
            ]
        },
        {
            "mesh" : 1,
            "name" : "Face",
            "translation" : [
                -0.06253594905138016,
                1.4246981143951416,
                0.009232808835804462
            ]
        },
        {
            "mesh" : 2,
            "name" : "Feet",
            "translation" : [
                -0.0529143325984478,
                0.20169655978679657,
                -0.2302994728088379
            ]
        },
        {
            "mesh" : 3,
            "name" : "Feet.001",
            "translation" : [
                -0.0529143325984478,
                0.20169657468795776,
                0.22276027500629425
            ]
        },
        {
            "mesh" : 4,
            "name" : "Hands",
            "translation" : [
                -0.005640038754791021,
                0.7856482267379761,
                -0.19435137510299683
            ]
        },
        {
            "mesh" : 5,
            "name" : "Hands.001",
            "translation" : [
                -0.005640039220452309,
                0.7892983555793762,
                0.1937587410211563
            ]
        },
        {
            "mesh" : 6,
            "name" : "Horns",
            "translation" : [
                -0.19803495705127716,
                1.9610624313354492,
                0
            ]
        }
    ],
    "materials" : [
        {
            "doubleSided" : true,
            "name" : "Material.003",
            "pbrMetallicRoughness" : {
                "baseColorFactor" : [
                    0,
                    0.010960080660879612,
                    0.027320872992277145,
                    1
                ],
                "metallicFactor" : 0,
                "roughnessFactor" : 0.5
            }
        },
        {
            "doubleSided" : true,
            "name" : "Material.004",
            "pbrMetallicRoughness" : {
                "baseColorFactor" : [
                    0.5972010493278503,
                    0.4910203814506531,
                    0.84687340259552,
                    1
                ],
                "metallicFactor" : 0,
                "roughnessFactor" : 0.5
            }
        },
        {
            "doubleSided" : true,
            "name" : "Material.005",
            "pbrMetallicRoughness" : {
                "baseColorFactor" : [
                    0.5972010493278503,
                    0.4910203814506531,
                    0.84687340259552,
                    1
                ],
                "metallicFactor" : 0,
                "roughnessFactor" : 0.5
            }
        },
        {
            "doubleSided" : true,
            "name" : "Material.006",
            "pbrMetallicRoughness" : {
                "baseColorFactor" : [
                    0.20507866144180298,
                    0.10702301561832428,
                    0.13013648986816406,
                    1
                ],
                "metallicFactor" : 0,
                "roughnessFactor" : 0.5
            }
        }
    ],
    "meshes" : [
        {
            "name" : "Cube.007",
            "primitives" : [
                {
                    "attributes" : {
                        "POSITION" : 0,
                        "NORMAL" : 1,
                        "TANGENT" : 2,
                        "TEXCOORD_0" : 3
                    },
                    "indices" : 4,
                    "material" : 0
                }
            ]
        },
        {
            "name" : "Cube.002",
            "primitives" : [
                {
                    "attributes" : {
                        "POSITION" : 5,
                        "NORMAL" : 6,
                        "TANGENT" : 7,
                        "TEXCOORD_0" : 8
                    },
                    "indices" : 9,
                    "material" : 1
                }
            ]
        },
        {
            "name" : "Cube.008",
            "primitives" : [
                {
                    "attributes" : {
                        "POSITION" : 10,
                        "NORMAL" : 11,
                        "TANGENT" : 12,
                        "TEXCOORD_0" : 13
                    },
                    "indices" : 14,
                    "material" : 1
                }
            ]
        },
        {
            "name" : "Cube.011",
            "primitives" : [
                {
                    "attributes" : {
                        "POSITION" : 15,
                        "NORMAL" : 16,
                        "TANGENT" : 17,
                        "TEXCOORD_0" : 18,
                        "COLOR_0" : 19
                    },
                    "indices" : 20,
                    "material" : 2
                }
            ]
        },
        {
            "name" : "Cube.009",
            "primitives" : [
                {
                    "attributes" : {
                        "POSITION" : 21,
                        "NORMAL" : 22,
                        "TANGENT" : 23,
                        "TEXCOORD_0" : 24
                    },
                    "indices" : 20,
                    "material" : 1
                }
            ]
        },
        {
            "name" : "Cube.010",
            "primitives" : [
                {
                    "attributes" : {
                        "POSITION" : 25,
                        "NORMAL" : 26,
                        "TANGENT" : 27,
                        "TEXCOORD_0" : 28
                    },
                    "indices" : 14,
                    "material" : 1
                }
            ]
        },
        {
            "name" : "Cube.003",
            "primitives" : [
                {
                    "attributes" : {
                        "POSITION" : 29,
                        "NORMAL" : 30,
                        "TANGENT" : 31,
                        "TEXCOORD_0" : 32
                    },
                    "indices" : 33,
                    "material" : 3
                }
            ]
        }
    ],
    "accessors" : [
        {
            "bufferView" : 0,
            "componentType" : 5126,
            "count" : 2296,
            "max" : [
                0.312741756439209,
                0.5883846879005432,
                0.410627156496048
            ],
            "min" : [
                -0.31274181604385376,
                -0.4583781361579895,
                -0.4106271266937256
            ],
            "type" : "VEC3"
        },
        {
            "bufferView" : 1,
            "componentType" : 5126,
            "count" : 2296,
            "type" : "VEC3"
        },
        {
            "bufferView" : 2,
            "componentType" : 5126,
            "count" : 2296,
            "type" : "VEC4"
        },
        {
            "bufferView" : 3,
            "componentType" : 5126,
            "count" : 2296,
            "type" : "VEC2"
        },
        {
            "bufferView" : 4,
            "componentType" : 5123,
            "count" : 12288,
            "type" : "SCALAR"
        },
        {
            "bufferView" : 5,
            "componentType" : 5126,
            "count" : 502,
            "max" : [
                0.41976234316825867,
                0.36421898007392883,
                0.41042837500572205
            ],
            "min" : [
                -0.40109488368034363,
                -0.4487524926662445,
                -0.41042861342430115
            ],
            "type" : "VEC3"
        },
        {
            "bufferView" : 6,
            "componentType" : 5126,
            "count" : 502,
            "type" : "VEC3"
        },
        {
            "bufferView" : 7,
            "componentType" : 5126,
            "count" : 502,
            "type" : "VEC4"
        },
        {
            "bufferView" : 8,
            "componentType" : 5126,
            "count" : 502,
            "type" : "VEC2"
        },
        {
            "bufferView" : 9,
            "componentType" : 5123,
            "count" : 2628,
            "type" : "SCALAR"
        },
        {
            "bufferView" : 10,
            "componentType" : 5126,
            "count" : 441,
            "max" : [
                0.10772459208965302,
                0.21852172911167145,
                0.11622532457113266
            ],
            "min" : [
                -0.10772478580474854,
                -0.21852171421051025,
                -0.11622539162635803
            ],
            "type" : "VEC3"
        },
        {
            "bufferView" : 11,
            "componentType" : 5126,
            "count" : 441,
            "type" : "VEC3"
        },
        {
            "bufferView" : 12,
            "componentType" : 5126,
            "count" : 441,
            "type" : "VEC4"
        },
        {
            "bufferView" : 13,
            "componentType" : 5126,
            "count" : 441,
            "type" : "VEC2"
        },
        {
            "bufferView" : 14,
            "componentType" : 5123,
            "count" : 2304,
            "type" : "SCALAR"
        },
        {
            "bufferView" : 15,
            "componentType" : 5126,
            "count" : 441,
            "max" : [
                0.10772459208965302,
                0.21852174401283264,
                0.11622531712055206
            ],
            "min" : [
                -0.10772475600242615,
                -0.21852172911167145,
                -0.11622530221939087
            ],
            "type" : "VEC3"
        },
        {
            "bufferView" : 16,
            "componentType" : 5126,
            "count" : 441,
            "type" : "VEC3"
        },
        {
            "bufferView" : 17,
            "componentType" : 5126,
            "count" : 441,
            "type" : "VEC4"
        },
        {
            "bufferView" : 18,
            "componentType" : 5126,
            "count" : 441,
            "type" : "VEC2"
        },
        {
            "bufferView" : 19,
            "componentType" : 5123,
            "count" : 441,
            "normalized" : true,
            "type" : "VEC4"
        },
        {
            "bufferView" : 20,
            "componentType" : 5123,
            "count" : 2304,
            "type" : "SCALAR"
        },
        {
            "bufferView" : 21,
            "componentType" : 5126,
            "count" : 441,
            "max" : [
                0.1124112457036972,
                0.11377006769180298,
                0.03772418200969696
            ],
            "min" : [
                -0.11241108924150467,
                -0.16712170839309692,
                -0.3425522446632385
            ],
            "type" : "VEC3"
        },
        {
            "bufferView" : 22,
            "componentType" : 5126,
            "count" : 441,
            "type" : "VEC3"
        },
        {
            "bufferView" : 23,
            "componentType" : 5126,
            "count" : 441,
            "type" : "VEC4"
        },
        {
            "bufferView" : 24,
            "componentType" : 5126,
            "count" : 441,
            "type" : "VEC2"
        },
        {
            "bufferView" : 25,
            "componentType" : 5126,
            "count" : 441,
            "max" : [
                0.11241123825311661,
                0.11011993885040283,
                0.3356057405471802
            ],
            "min" : [
                -0.11241109669208527,
                -0.1707717776298523,
                -0.04467068612575531
            ],
            "type" : "VEC3"
        },
        {
            "bufferView" : 26,
            "componentType" : 5126,
            "count" : 441,
            "type" : "VEC3"
        },
        {
            "bufferView" : 27,
            "componentType" : 5126,
            "count" : 441,
            "type" : "VEC4"
        },
        {
            "bufferView" : 28,
            "componentType" : 5126,
            "count" : 441,
            "type" : "VEC2"
        },
        {
            "bufferView" : 29,
            "componentType" : 5126,
            "count" : 38,
            "max" : [
                0.12096598744392395,
                0.017992019653320312,
                0.375
            ],
            "min" : [
                -0.21159245073795319,
                -0.3756498098373413,
                -0.3125
            ],
            "type" : "VEC3"
        },
        {
            "bufferView" : 30,
            "componentType" : 5126,
            "count" : 38,
            "type" : "VEC3"
        },
        {
            "bufferView" : 31,
            "componentType" : 5126,
            "count" : 38,
            "type" : "VEC4"
        },
        {
            "bufferView" : 32,
            "componentType" : 5126,
            "count" : 38,
            "type" : "VEC2"
        },
        {
            "bufferView" : 33,
            "componentType" : 5123,
            "count" : 120,
            "type" : "SCALAR"
        }
    ],
    "bufferViews" : [
        {
            "buffer" : 0,
            "byteLength" : 27552,
            "byteOffset" : 0
        },
        {
            "buffer" : 0,
            "byteLength" : 27552,
            "byteOffset" : 27552
        },
        {
            "buffer" : 0,
            "byteLength" : 36736,
            "byteOffset" : 55104
        },
        {
            "buffer" : 0,
            "byteLength" : 18368,
            "byteOffset" : 91840
        },
        {
            "buffer" : 0,
            "byteLength" : 24576,
            "byteOffset" : 110208
        },
        {
            "buffer" : 0,
            "byteLength" : 6024,
            "byteOffset" : 134784
        },
        {
            "buffer" : 0,
            "byteLength" : 6024,
            "byteOffset" : 140808
        },
        {
            "buffer" : 0,
            "byteLength" : 8032,
            "byteOffset" : 146832
        },
        {
            "buffer" : 0,
            "byteLength" : 4016,
            "byteOffset" : 154864
        },
        {
            "buffer" : 0,
            "byteLength" : 5256,
            "byteOffset" : 158880
        },
        {
            "buffer" : 0,
            "byteLength" : 5292,
            "byteOffset" : 164136
        },
        {
            "buffer" : 0,
            "byteLength" : 5292,
            "byteOffset" : 169428
        },
        {
            "buffer" : 0,
            "byteLength" : 7056,
            "byteOffset" : 174720
        },
        {
            "buffer" : 0,
            "byteLength" : 3528,
            "byteOffset" : 181776
        },
        {
            "buffer" : 0,
            "byteLength" : 4608,
            "byteOffset" : 185304
        },
        {
            "buffer" : 0,
            "byteLength" : 5292,
            "byteOffset" : 189912
        },
        {
            "buffer" : 0,
            "byteLength" : 5292,
            "byteOffset" : 195204
        },
        {
            "buffer" : 0,
            "byteLength" : 7056,
            "byteOffset" : 200496
        },
        {
            "buffer" : 0,
            "byteLength" : 3528,
            "byteOffset" : 207552
        },
        {
            "buffer" : 0,
            "byteLength" : 3528,
            "byteOffset" : 211080
        },
        {
            "buffer" : 0,
            "byteLength" : 4608,
            "byteOffset" : 214608
        },
        {
            "buffer" : 0,
            "byteLength" : 5292,
            "byteOffset" : 219216
        },
        {
            "buffer" : 0,
            "byteLength" : 5292,
            "byteOffset" : 224508
        },
        {
            "buffer" : 0,
            "byteLength" : 7056,
            "byteOffset" : 229800
        },
        {
            "buffer" : 0,
            "byteLength" : 3528,
            "byteOffset" : 236856
        },
        {
            "buffer" : 0,
            "byteLength" : 5292,
            "byteOffset" : 240384
        },
        {
            "buffer" : 0,
            "byteLength" : 5292,
            "byteOffset" : 245676
        },
        {
            "buffer" : 0,
            "byteLength" : 7056,
            "byteOffset" : 250968
        },
        {
            "buffer" : 0,
            "byteLength" : 3528,
            "byteOffset" : 258024
        },
        {
            "buffer" : 0,
            "byteLength" : 456,
            "byteOffset" : 261552
        },
        {
            "buffer" : 0,
            "byteLength" : 456,
            "byteOffset" : 262008
        },
        {
            "buffer" : 0,
            "byteLength" : 608,
            "byteOffset" : 262464
        },
        {
            "buffer" : 0,
            "byteLength" : 304,
            "byteOffset" : 263072
        },
        {
            "buffer" : 0,
            "byteLength" : 240,
            "byteOffset" : 263376
        }
    ],
    "buffers" : [
        {
            "byteLength" : 263616,
            "uri" : "data:application/octet-stream;base64,"
        }
    ]
}
